<svg xmlns="http://www.w3.org/2000/svg" viewBox="0 0 256 256" role="img" aria-labelledby="title">
  <title>App icon for XOF Transfer</title>
  <defs>
    <linearGradient id="glow" x1="0" y1="0" x2="1" y2="1">
      <stop offset="0%" stop-color="#00e5ff" />
      <stop offset="100%" stop-color="#1fd1c9" />
    </linearGradient>
    <radialGradient id="core" cx="50%" cy="40%" r="70%">
      <stop offset="0%" stop-color="#0b2844" />
      <stop offset="100%" stop-color="#0d1f33" />
    </radialGradient>
    <filter id="soft-shadow" x="-20%" y="-20%" width="140%" height="140%">
      <feDropShadow dx="0" dy="12" stdDeviation="10" flood-color="#000" flood-opacity="0.35" />
    </filter>
  </defs>
  <rect width="256" height="256" rx="48" fill="#2a333c" />
  <g filter="url(#soft-shadow)">
    <path d="M67 124c0-32 25-58 57-58s57 26 57 58-25 58-57 58-57-26-57-58Z" fill="url(#core)" />
  </g>
  <circle cx="124" cy="124" r="54" fill="none" stroke="url(#glow)" stroke-width="10" opacity="0.9" />
  <g stroke="url(#glow)" stroke-width="4" fill="none" opacity="0.85">
    <path d="M86 124h76" />
    <path d="M124 70v108" />
    <path d="M108 84c10 18 9 40 7 53-2 13-4 34 9 54" />
    <path d="M140 84c-10 18-9 40-7 53 2 13 4 34-9 54" />
  </g>
  <path d="M131 93c18-2 30 3 34 14 3 9 2 19-4 25-9 9-23 10-35 8" stroke="#7af7ff" stroke-width="7" fill="none" stroke-linecap="round" />
  <path d="M129 120c-3 0-6-1-9-1-10 0-18 8-18 18s8 18 18 18h18c6 0 10-4 10-9s-4-9-10-9h-9" stroke="#7af7ff" stroke-width="7" fill="none" stroke-linecap="round" />
  <path d="M125 94c12-1 18 5 19 13s-2 23-9 29" stroke="#7af7ff" stroke-width="6" fill="none" stroke-linecap="round" />
  <g transform="translate(130 95) rotate(8 0 0)">
    <polygon points="0,0 40,-20 32,4 60,10 24,24 16,44" fill="#dbe6ff" stroke="#7af7ff" stroke-width="3" />
    <path d="M6 0l12 10" stroke="#1fd1c9" stroke-width="3" stroke-linecap="round" />
  </g>
  <path d="M76 80c0-12 10-22 22-22h60c12 0 22 10 22 22v56c0 12-10 22-22 22h-6l-6 16-6-16h-38c-12 0-22-10-22-22V80Z" fill="#091622" stroke="url(#glow)" stroke-width="5" />
  <path d="M106 58c10-9 28-6 36 6l6 10" fill="none" stroke="#7af7ff" stroke-width="5" stroke-linecap="round" />
</svg>
